<svg id="Icons" fill="#ffffff" height="512" viewBox="0 0 74 74" width="512" xmlns="http://www.w3.org/2000/svg"><path d="m8.123 49.175c-.029 0-.06 0-.09 0a1 1 0 0 1 -.907-1.085l2.174-24.296a1 1 0 0 1 1-.911h7.47a1 1 0 0 1 1 .9l1.844 17.783a1 1 0 0 1 -1.99.206l-1.75-16.886h-5.667l-2.089 23.378a1 1 0 0 1 -.995.911z"/><path d="m68.662 72h-63.324a1 1 0 0 1 -1-1v-21.249a1 1 0 0 1 .507-.87l21.108-11.962a1 1 0 0 1 1.493.87v10.246l19.615-11.116a1 1 0 0 1 1.493.87v10.246l19.615-11.116a1 1 0 0 1 1.493.87v33.211a1 1 0 0 1 -1 1zm-62.324-2h61.324v-30.495l-19.615 11.116a1 1 0 0 1 -1.493-.87v-10.245l-19.615 11.115a1 1 0 0 1 -1.493-.87v-10.246l-19.108 10.828z"/><path d="m60.281 64.55h-8.381a1 1 0 0 1 -1-1v-5.588a1 1 0 0 1 1-1h8.382a1 1 0 0 1 1 1v5.588a1 1 0 0 1 -1.001 1zm-7.382-2h6.382v-3.588h-6.381z"/><path d="m44.916 64.55h-8.382a1 1 0 0 1 -1-1v-5.588a1 1 0 0 1 1-1h8.382a1 1 0 0 1 1 1v5.588a1 1 0 0 1 -1 1zm-7.382-2h6.382v-3.588h-6.382z"/><path d="m29.55 64.55h-8.381a1 1 0 0 1 -1-1v-5.588a1 1 0 0 1 1-1h8.381a1 1 0 0 1 1 1v5.588a1 1 0 0 1 -1 1zm-7.381-2h6.381v-3.588h-6.381z"/><path d="m15.017 19.87a1 1 0 0 1 -.983-1.184l1.328-7.112a4.756 4.756 0 0 1 4.627-6.769 4.754 4.754 0 0 1 7.848-1.255 4.659 4.659 0 0 1 1.186-.15 4.749 4.749 0 0 1 3.65 7.8 4.663 4.663 0 0 1 .144 1.149 4.769 4.769 0 0 1 -4.764 4.764 4.6 4.6 0 0 1 -1.3-.189 4.776 4.776 0 0 1 -4.288 2.69 4.716 4.716 0 0 1 -2.353-.627l-4.924.866a.984.984 0 0 1 -.171.017zm2.333-8.047-1.085 5.813 3.78-.665a1 1 0 0 1 .841.142 2.738 2.738 0 0 0 1.58.5 2.766 2.766 0 0 0 2.709-2.225 1 1 0 0 1 1.488-.668 2.716 2.716 0 0 0 1.391.392 2.754 2.754 0 0 0 2.559-3.8 1 1 0 0 1 .256-1.117 2.724 2.724 0 0 0 .919-2.04 2.752 2.752 0 0 0 -3.888-2.512 1 1 0 0 1 -1.25-.37 2.754 2.754 0 0 0 -5.011.887 1 1 0 0 1 -1.238.747 2.748 2.748 0 0 0 -3.113 4.034 1 1 0 0 1 .062.882z"/></svg>