<svg xmlns="http://www.w3.org/2000/svg" viewBox="0 0 39.73 59.19"><defs><style>.cls-1{isolation:isolate;}.cls-2{fill:#69daff;}.cls-3{mix-blend-mode:screen;}.cls-4{fill:#728a91;}</style></defs><g class="cls-1"><g id="Слой_2" data-name="Слой 2"><g id="Layer_2" data-name="Layer 2"><path class="cls-2" d="M39.73,39.33A19.87,19.87,0,0,1,0,39.33C0,22.7,15.42,16.65,19.86,0,30.22,14.18,39.73,28.35,39.73,39.33Z"/><g class="cls-3"><path class="cls-2" d="M19.86,53.46A16.18,16.18,0,0,1,3.7,37.3c0-15.16,13-12.39,17.19-31.57C28.79,16.91,36,28.69,36,37.3A16.18,16.18,0,0,1,19.86,53.46Z"/></g><g class="cls-3"><path class="cls-2" d="M19.86,49.76A12.47,12.47,0,0,1,7.4,37.3c0-9.48,12.46-11.57,13.79-24.62,5.47,8.16,11.14,18,11.14,24.62A12.48,12.48,0,0,1,19.86,49.76Z"/></g><g class="cls-3"><path class="cls-4" d="M19.86,46.06A8.77,8.77,0,0,1,11.1,37.3c0-6.48,8.76-6,10-18,5,8.1,7.57,14.15,7.57,18A8.77,8.77,0,0,1,19.86,46.06Z"/></g></g></g></g></svg>